<?xml version="1.0" encoding="utf-8"?>
<!-- Generator: Adobe Illustrator 28.2.0, SVG Export Plug-In . SVG Version: 6.00 Build 0)  -->
<svg version="1.1" id="Layer_1" xmlns="http://www.w3.org/2000/svg" xmlns:xlink="http://www.w3.org/1999/xlink" x="0px" y="0px"
	 viewBox="0 0 2848 1720" style="enable-background:new 0 0 2848 1720;" xml:space="preserve">
<style type="text/css">
	.st0{fill:#FF0000;}
	.st1{fill:#FFE000;}
	.st2{fill:#FFFFFF;}
</style>
<g>
	<path class="st0" d="M1666.72,648.18l-68.29,104.13c-10.68-13.53-23.42-25.4-37.74-35.21c-27.85-19.15-61.56-30.31-97.88-30.31
		c-33.23,0-64.33,9.34-90.68,25.64l-80.87-91.31c48.27-34.66,107.53-55.15,171.55-55.15c34.34,0,67.26,5.86,97.88,16.7
		C1600.73,596.75,1636.73,619.3,1666.72,648.18z"/>
	<path class="st0" d="M1582.37,1128.71c-7.04,3.17-14.32,6.01-21.68,8.62c-30.62,10.84-63.54,16.7-97.88,16.7
		c-40.12,0-78.41-8.07-113.23-22.63c-106.19-44.31-180.8-149.15-180.8-271.4c0-2.22,0-4.35,0.08-6.57
		c1.19-52.78,16.22-102.15,41.7-144.56l87.2,98.51c-4.67,14.64-7.44,30.07-7.99,46.05c-0.08,2.22-0.16,4.35-0.16,6.57
		c0,80.08,54.36,147.49,128.26,167.27c14.32,3.88,29.43,5.93,44.94,5.93c11,0,21.84-1.03,32.28-3.01l65.6,74.06L1582.37,1128.71z"/>
	<polygon class="st1" points="1679.22,853.43 1679.22,1059.08 1598.36,967.77 1560.69,925.28 1560.69,853.43 	"/>
</g>
</svg>
